# xmcd CD database file
#
# Track frame offsets:
#	150
#	10547
#	20355
#	29452
#	45837
#	55357
#	69382
#	81145
#	93300
#	103535
#	115340
#	125307
#
# Disc length: 1834 seconds
#
# Revision: 0
# Processed by: cddbd v1.5.2PL0 Copyright (c) Steve Scherf et al.
# Submitted via: CDex 1.70beta2
#
DISCID=8807280c
DTITLE=Kenny Roberts - Indian Love Call
DYEAR=1900
DGENRE=Country
TTITLE0=Indian Love Call
TTITLE1=Maybe, I'll Cry Over You
TTITLE2=Just Look, Don't Touch
TTITLE3=Tying The Leaves
TTITLE4=Guitar Ringing
TTITLE5=Listen To The Mockingbird
TTITLE6=Tavern Town
TTITLE7=Chime Bells
TTITLE8=Please Don't Turn Around
TTITLE9=I Never See Maggie Alone
TTITLE10=If I'm Blue
TTITLE11=She Taught Me How To Yodel
EXTD=
EXTT0=
EXTT1=
EXTT2=
EXTT3=
EXTT4=
EXTT5=
EXTT6=
EXTT7=
EXTT8=
EXTT9=
EXTT10=
EXTT11=
PLAYORDER=
